<?xml version="1.0" encoding="utf-8"?>
<!-- Generator: Adobe Illustrator 24.1.3, SVG Export Plug-In . SVG Version: 6.00 Build 0)  -->
<svg version="1.1" id="Capa_1" xmlns="http://www.w3.org/2000/svg" xmlns:xlink="http://www.w3.org/1999/xlink" x="0px" y="0px"
	 width="259px" height="534px" viewBox="0 0 259 534" style="enable-background:new 0 0 259 534;" xml:space="preserve">
<style type="text/css">
	.st0{fill:#FEC30F;}
	.st1{fill:none;stroke:#FEC30F;stroke-miterlimit:10;}
	.st2{clip-path:url(#SVGID_2_);}
	.st3{clip-path:url(#SVGID_4_);}
</style>
<image style="overflow:visible;" width="259" height="534" xlink:href="../../Desktop/cables_3_mobile.jpg"  transform="matrix(1.0002 0 0 1.0002 -2.424397e-02 -4.998563e-02)">
</image>
<path class="st0" d="M129.1,194.4c-0.6,0.7,3.6-1.8,4.1-1.8c1.1,0,4.9-3.8,3.7-4.9c0.2-3.4-0.2-4.2-7.8-5.9l-7.6,2.4
	c0,0,9.4,2.5,8.7,7.1C130.2,191.3,130.1,193.3,129.1,194.4z"/>
<path class="st0" d="M131.7,155.3c0,0,0.3-1.1,1.9-0.4c0.2,0.1,0.3,0.2,0.5,0.2c1.4,1.7,5,4.7,4.6,6c0,0,0,2,0.6,4.1
	c-0.2-0.6-0.4-1.2-0.6-1.8c-1.7-7.1-3.4-1.3-7.6-5.4c1.3,3.8,11,3.6,4.9,23.2c-0.1,0.4,1,0.3,2,0.1c0.2,0.3,0.5,0.9,0.7,1.7
	c0.3,1.5,0,3.4,0,3.4s1.8-2.7,3-4.8c0.1,0.1,0.1,0.2,0.1,0.2c0.1-0.3,0.1-0.6,0.2-0.9c0.3-0.6,0.5-1.2,0.6-1.6c0-0.3,0-0.5,0-0.7
	c2.7-11-0.6-17-5.9-23.3c-0.3-0.3-0.5-0.7-0.8-0.9l-0.1-0.1l0,0c-2.3-2.6-4.5-3.8-4.5-3.8l-4,2C127.6,152.4,128.8,154,131.7,155.3z
	 M139.8,166.8c-0.1-0.5-0.2-0.9-0.3-1.3c0,0.1,0,0.2,0.1,0.3C139.6,166,139.7,166.3,139.8,166.8z"/>
<path class="st0" d="M119.4,140.3c-5-2.1-11.5-3.8-11.5-3.8l-4.6,4l9.6,0.5C112.9,141.1,114.4,139.8,119.4,140.3z"/>
<polygon class="st0" points="83.8,141.6 82.7,142.3 82.7,146.4 81.4,149.1 86.3,145.5 "/>
<polygon class="st0" points="227.4,186.4 222,186.4 217.2,190.4 226.7,190.1 "/>
<polygon class="st0" points="17.5,424.7 20.8,420.4 20.8,413.8 17.5,403.1 "/>
<polygon class="st0" points="20.8,397.6 17.5,388 17.5,398.7 20.8,409.4 "/>
<polygon class="st0" points="24.9,406.8 24.9,424.1 32.1,450.2 28.2,417.5 "/>
<polygon class="st0" points="28.2,379.5 24.9,370.9 24.9,402.4 28.2,413.2 "/>
<polygon class="st0" points="35.9,481.5 34.1,479.3 34.1,484.2 35.9,484.2 "/>
<polygon class="st0" points="35.9,474.2 34.1,472 34.1,476.9 35.9,476.9 "/>
<polygon class="st0" points="35.9,488.8 34.1,486.6 34.1,491.5 35.9,491.5 "/>
<rect x="29.6" y="499" class="st0" width="1.6" height="20.4"/>
<polygon class="st0" points="35.9,501.5 35.9,519.4 36.8,519.4 36.8,502.6 "/>
<polygon class="st0" points="74.5,389.6 74.5,398 95.2,436.4 70.2,378.8 "/>
<polygon class="st0" points="56.8,347.9 70.2,378.8 67.5,372.1 "/>
<polygon class="st0" points="86.4,428.1 95.2,450.2 87.8,422.6 "/>
<path class="st0" d="M107.8,398.8c3.4,3.4,39.6,38.7,39.6,38.7l-54.7-56.1C92.7,381.3,104.4,395.4,107.8,398.8z"/>
<path class="st0" d="M159.7,293l-21-2.9c0,0,5.2-13.9,3.4-13.9c-5.5,13.1-15.9,22.7-15.9,22.7l-3.4,1.9l8.2,0.8l6.8,0.5l9.6,1
	l17.6-3.1l-4.9-1.1L159.7,293z"/>
<polygon class="st0" points="58.3,381.3 69.9,421.3 77,436.4 58.3,369.2 "/>
<polygon class="st0" points="53.4,351.7 58.3,369.2 58.3,364.1 "/>
<polygon class="st0" points="85.2,403.1 85.2,407.2 112.5,452.9 68.8,368.8 "/>
<g>
	<rect x="35.5" y="330.7" class="st0" width="1.6" height="3.6"/>
	<rect x="35.5" y="338.9" class="st0" width="1.6" height="3.6"/>
	<rect x="35.5" y="345.1" class="st0" width="1.6" height="3.6"/>
</g>
<g>
	
		<rect x="26.6" y="129.7" transform="matrix(0.8871 -0.4616 0.4616 0.8871 -56.8369 27.8084)" class="st0" width="3.6" height="0.8"/>
	
		<rect x="25.7" y="127.9" transform="matrix(0.8871 -0.4616 0.4616 0.8871 -56.1372 27.1951)" class="st0" width="3.6" height="0.8"/>
	
		<rect x="24.9" y="126.3" transform="matrix(0.8871 -0.4616 0.4616 0.8871 -55.4815 26.6204)" class="st0" width="3.6" height="0.8"/>
</g>
<rect x="35.5" y="70.9" class="st0" width="1.6" height="3.6"/>
<rect x="35.5" y="53.4" class="st0" width="1.6" height="13.6"/>
<polygon class="st0" points="41.2,201.1 41.2,204.7 43,204.7 45.7,201.9 "/>
<polygon class="st0" points="47.8,209 48.8,209 50.2,207.6 47.8,207.2 "/>
<polygon class="st0" points="40,209 40.9,209 42.3,207.6 40,207.2 "/>
<polygon class="st0" points="73.3,271.4 70.7,271.3 70.4,276.8 77,275.8 "/>
<polygon class="st0" points="54.7,439.4 59.4,394.1 49.2,447.7 "/>
<path class="st0" d="M3.6,477.8L3,478.2v5.9v4.7l1.7-1.7l5.5,4v-14L7.8,478l-1.4,3.3v-5.2L5,476.9l1-3.4c0-0.1,0.9-14.5,0.6-25
	C6.4,438,0.1,422.8,0,422.6v3.1c0.1,0.1,5.3,12.5,5.6,22.9C5.7,455.7,4.5,469.7,3.6,477.8z"/>
<path class="st0" d="M0.4,486.7l3-10.6c0-0.1,0.9-14.5,0.6-25c-0.2-10.5-3.9-18.7-4-19.7v3.3c0.1,0.9,2.7,6,2.9,16.4
	C3.2,461.5,0.4,486.6,0.4,486.7z"/>
<path class="st0" d="M93.4,140.6l7.2-5.1c0,0-5.2,0-9,0.4c-2.3,0.3-5,3.2-5,3.2l3.2,4.2L93.4,140.6z"/>
<path class="st0" d="M117,188.4l-3.6-3.9C103.3,184,90,176,90,176C102,185.8,117,188.4,117,188.4z"/>
<polygon class="st0" points="125.5,144.8 124.1,143.3 120.9,144.6 124.8,146 "/>
<path class="st0" d="M207.4,256.3c2.1,0.5,6.5,0,6.5,0l7.5-1.5l-3.1-0.9l-1.1-1.8c0,0-4.2-1.8-11.3-8l-6,5.8
	C199.9,249.9,205.3,255.8,207.4,256.3z"/>
<polygon class="st0" points="246.4,258.5 235.5,258.5 230.9,256.5 230.9,258.5 230.9,263.6 236.9,263.6 "/>
<path class="st0" d="M259,250.8l0-3.2l-4.2-3.5c-3.8,3.8-10.5,7.1-10.5,7.1h6.6l-4.6,1.7l-6.4,2.7h13.5L259,250.8z"/>
<polygon class="st0" points="190.4,224.4 193.7,226.1 193.7,222.1 "/>
<polygon class="st0" points="244.4,198.4 246.4,194.5 241.6,190.4 236.9,192.8 239.2,194.5 "/>
<polygon class="st0" points="184.7,228.9 184.7,230.7 190.4,230.7 194.8,228.9 "/>
<path class="st0" d="M203.2,196.5c0,0-1-2.6,1.2-4c3.2-2.1,3.3,0,3.3,0l7.8-7c0,0-3.6-0.1-8.2,1c-4.5,1-10.3,5.8-10.3,5.8v3.9
	l2.8,3.4L203.2,196.5z"/>
<path class="st0" d="M253.5,210.7c0,0,2.4,13.8,2.7,19.5l-2.7,7.6h5.5v-14.7V213l-1.9-4l-6.4-7.5l-0.9,1.1l3.9,7.9L253.5,210.7z"/>
<polygon class="st0" points="57.6,277.3 63.6,276.2 66.3,271.3 53.4,271.3 54.1,272.3 33.3,242.9 31,227.2 30.9,222.6 25.2,214.2 
	18.1,210.3 18.8,218.3 18.8,222.3 19.8,224.4 25.3,235.7 48.8,287.5 34.8,253 34,247.6 73.3,299.6 "/>
<path class="st0" d="M149,200.1c0.7,0.1,73.5,9.6,102.1,13.2l-1.3-1.7c-13.4-1.7-36.4-4.5-57.2-7.1l4.5-3l-4.4-4.7l-4.4,6.4l0.7,0.9
	c-22.1-2.7-40.8-5.1-41.1-5.1L149,200.1z"/>
<path class="st0" d="M217.2,245.9c-2.7-0.3-5.6-0.6-8.5-0.9l31.1,3.4C234.8,247.8,226.9,247,217.2,245.9z"/>
<path class="st0" d="M192.1,242.8c-9.5-1-18.7-1.9-28.7-2.9l2.3,1.3c10,1,16.8,1.7,26.3,2.7L192.1,242.8z"/>
<path class="st0" d="M127,236.2c-24.2-2.4-42.8-4.2-42.8-4.2l1,1.1c0,0,18.3,1.8,42.4,4.2L127,236.2z"/>
<path class="st0" d="M249.8,243.6l0.1-1c-7.5-0.9-24.5-2.7-47.7-5.1l1.3,1.2C226.7,241,242.3,242.6,249.8,243.6z"/>
<path class="st0" d="M168.6,234.1l-1.3,0.9c6.2,0.6,13.9,1.4,19.9,2l-1-1.1C180.2,235.2,174.8,234.7,168.6,234.1z"/>
<path class="st0" d="M125,230.8l-0.8-1.1c-24.6-2.4-43.6-4.2-43.6-4.2l0.7,1.1C81.4,226.6,100.4,228.4,125,230.8z"/>
<path class="st0" d="M253.5,223.4c-28.6-3.5-94.2-6.9-94.9-6.9l-1.3,0.8c0.7,0,67.6,3.6,96.2,7.1V223.4z"/>
<path class="st0" d="M241.6,265c3.2-1.6,6.2-3.7,7.5-6.6c0,0-3,4.1-10.9,6.2c-3.2-0.3-6.4-0.6-9.5-1v-5.2l-1.2-1l-6-1l-12.7,1.9
	l5.6,3.6c-33.2-4.2-59-9.2-59.3-9.3l-0.2,1c0.4,0.1,27.3,5.4,61.6,9.6l0.4,0.2l0,0c5.8,3.8,10.6,5.1,10.6,5.1V266c0,0-2.8-0.2-7.7-2
	l9,1.1v-0.3c2.1,0.2,4.2,0.5,6.3,0.7c-1.3,0.2-2.6,0.4-4.1,0.5v2.7c0,0,4.3-0.9,8.8-2.8c6.6,0.6,12.5,1.2,19.2,1.6v-1
	C252.8,266,247.5,265.6,241.6,265z"/>
<polygon class="st0" points="181.2,290.1 189.8,290.1 190,283.5 181.2,282.5 "/>
<polygon class="st0" points="259,315.1 259,311.6 214,307.9 "/>
<polygon class="st0" points="259,302.9 259,299.6 240,299.6 "/>
<polygon class="st0" points="259,272.3 259,270.3 236.8,272.2 247.7,273.3 "/>
<polygon class="st0" points="210.6,274.1 206.3,271.8 143.8,273.3 142.8,275.5 "/>
<polygon class="st0" points="157.3,250.7 177.3,251.8 177.3,250.7 157.3,249.7 "/>
<polygon class="st0" points="128.3,249.3 128.3,248.1 84.2,245.8 86.5,246.9 "/>
<polygon class="st0" points="46.4,244.9 65.8,245.8 65.8,244.8 46.4,244 "/>
<polygon class="st0" points="49.1,11.9 47.3,11.9 47.3,12.8 49.1,14.2 "/>
<polygon class="st0" points="49.1,15.2 47.3,15.2 47.3,16.1 49.1,17.5 "/>
<polygon class="st0" points="49.1,18.4 47.3,18.4 47.3,19.3 49.1,20.7 "/>
<g id="cables">
	<g>
		<path class="st0" d="M129.1,404l15.1,11.5c1.9,1.2,30.7,26.5,114.8,46.7v-8.9C176.3,433.4,129.6,404.2,129.1,404z"/>
		<path class="st0" d="M193.2,346.5c21.3,0,43.6-1.8,65.8-6.5v-3.1C152,359.3,37,315.4,35.9,315l17.5,8.1
			C54.3,323.5,110.7,346.5,193.2,346.5z"/>
		<path class="st0" d="M259,401.9c-117.1-4.8-206.2-65.4-207-66l7.4,5.6c0.9,0.6,81.6,58.7,199.6,63.6V401.9z"/>
		<path class="st0" d="M243.2,81.7c6-1.9,11.2-3.7,15.8-5.3l0-1.7c-5.8,2.1-12.3,4.3-19.1,6.5l-9.2,2.6c-17,5.3-35.8,10.6-54.1,15.5
			c-48.6-0.7-97.5,0.9-97.9,1l0.5,2.7c0.4,0,45.9-2.4,92.8-2.3c-1.4,0.4-2.8,0.7-4.2,1.1l-87.9,4.5l0.5,2.1l77.5-4
			c-40.6,10.5-74.4,18.2-74.8,18.3l0,2.1c0.4-0.1,38.5-9.5,80.7-20.7l48.8-2.5c18.6,0.9,35.4,2.5,46.4,5.2v-1.6
			c-9-1.8-21.9-3.1-36.2-4l36.2-1.8v-2.1l-57.1,2.9c-6.9-0.2-13.9-0.4-21-0.6c18.7-5.1,37.3-10.3,53-15.1L243.2,81.7z M186.7,100.8
			l-13.3,0.7c1-0.3,2-0.5,3-0.8C179.8,100.7,183.3,100.7,186.7,100.8z"/>
	</g>
</g>
<g>
	<path class="st0" d="M46.7,156.3c-4.5-26.5-7.1-24.8-8.1-25c-0.3-0.1-0.5,0.2-0.6,0.2l-0.8-0.6c0.2-0.3,0.8-0.8,1.6-0.6
		c3.1,0.7,5.6,6.3,8.9,25.8L46.7,156.3z"/>
</g>
<g>
	<polygon class="st0" points="259,158.5 84.4,135.6 84.1,134.6 259,157.5 	"/>
</g>
<g>
	<polygon class="st0" points="48.2,131.1 36.8,129.4 37,128.4 47.7,129.8 	"/>
</g>
<g>
	<polygon class="st0" points="259,141.4 83.3,117.5 83.1,115.8 259,140.4 	"/>
</g>
<g>
	<polygon class="st0" points="44.5,112.6 35.8,111 36,110.1 44.4,111.2 	"/>
</g>
<g>
	<polygon class="st0" points="36,120.2 35.8,119.2 45,117.4 45.1,118.4 	"/>
</g>
<g>
	<polygon class="st0" points="259,152.9 83.5,129.5 83.5,128.5 259,151.9 	"/>
</g>
<g>
	<polygon class="st0" points="46.8,124.6 35.8,123.2 36,122.2 46.6,123.6 	"/>
</g>
<g>
	<path class="st0" d="M50.6,155.5c-0.1-0.2-12.2-16.4-29.8-18.4c-7.3-0.8-14.5,1.6-20.8,6.9v-1.6c6.5-5.4,13.3-7.2,20.9-6.3
		c9.4,1.1,17.9,6.9,23.3,11.7c5.9,5.1,7.6,7.7,7.7,7.7L50.6,155.5z"/>
</g>
<g>
	<path class="st0" d="M128.3,248.6c-13.3-3.2-28.5-7.2-40.7-11.2l-1.3-1.4c12.1,3.9,28.7,8.3,42,11.5L128.3,248.6z"/>
</g>
<g>
	<path class="st0" d="M63.3,229.4C23,214.6,0.2,199.8-0.1,199.7l0.1-2.9c0.2,0.1,16,14.3,56.1,29.1L63.3,229.4z"/>
</g>
<g>
	<path class="st0" d="M13.2,462.2l-1.5,6.7c0.5-30.5-4.3-60.8-8.1-81C2.1,380,0,366.9,0,366.9l0-6.4c0,5.7,2.3,15.2,4.6,27.3
		C8.3,408,13.5,435.6,13.2,462.2z"/>
</g>
<g>
	<path class="st0" d="M59,514.8c-0.1-0.1-7.2-12-27-18.4C12.3,490.1,0.1,508.6,0,508.7v-4.3c0.1-0.2,11.9-15.6,32.3-9
		c10.5,3.4,17.5,8.3,21.4,11.9c4.3,3.9,6.1,6.9,6.2,7L59,514.8z"/>
</g>
<g>
	<path class="st0" d="M44.8,521l-1-0.2c0-0.1,2.3-11.2-4.6-16.6c-15.9-12.4-32.4,0.6-32.5,0.7L6,504.2c0.2-0.1,17.2-13.6,33.8-0.7
		C47.2,509.2,44.9,520.6,44.8,521z"/>
</g>
<g>
	<path class="st0" d="M42.2,500l-4.4-2.1c0.1-0.3,10.8-27,13.7-51.3l1,0.1C49.6,471.1,42.3,499.7,42.2,500z"/>
</g>
<path class="st1" d="M54.3,402.8c0,0-4.1,5-12.4,4.8"/>
<line class="st1" x1="41.9" y1="411.3" x2="52" y2="422.6"/>
<polygon class="st0" points="41.7,520.5 45.8,520.5 45.8,523.9 41.2,528.6 37.8,528.6 37.8,525 "/>
<g>
	<path class="st0" d="M88,52.7c-0.1,0.2-7.8,20.5-28.6,18c-9.3-1.1-12.8-12.5-13-13l0.9-0.3c0,0.1,3.5,11.2,12.2,12.3
		c20,2.4,27.5-17.1,27.5-17.3c5.1-14.9,2.4-35.9-37-38.7v-1.2C50.1,12.5,101.9,14,88,52.7z"/>
</g>
<polygon class="st0" points="49,57 45.5,59.2 43.7,56.2 45.3,49.9 48.2,48.1 50.1,51.2 "/>
<polygon class="st0" points="37.8,503.2 40.1,499.6 34.1,496.9 27.8,495.2 18.3,495.2 11.3,497.9 6,502.2 4.1,502.6 6.7,505 
	13.5,500.6 18.6,499 23.9,498.4 29.6,499 34.1,500.6 "/>
<polygon class="st0" points="47.2,469.1 36.7,433.1 29.6,418 34.7,443.9 38.4,462.8 42.7,484.2 "/>
<polygon class="st0" points="0,506.2 0,496.2 5,491 10.7,496.7 2.8,501.5 "/>
<polygon class="st0" points="22.1,396.5 12.7,363.3 11.7,325.9 22.1,363.3 "/>
<polygon class="st0" points="31.6,96.9 22.3,72.7 26.3,37 32,68.4 "/>
<polygon class="st0" points="16.9,510.5 12.7,512.5 19.1,519.4 36.8,519.4 36.8,530 32.1,530 32.1,534 0,534 0,514.8 "/>
<polygon class="st0" points="0,0 0,27.3 5.8,21.1 14.8,20.1 14.8,36.9 24.8,20.7 32.1,18.3 32.1,0 "/>
<polyline class="st0" points="43.5,168 46.8,174.1 183,114.7 100.6,146 "/>
<path class="st0" d="M42.8,160.2c0,0,3.5-5.2,13.3-3.8v9.8H39.4v6.6l-4.9,2.3v-14.5L42.8,160.2z"/>
<polyline class="st0" points="38.6,152.5 37.6,97.8 38.3,94.5 29.3,82.9 "/>
<polygon class="st0" points="38.3,163.9 38.3,136.8 33.8,134.2 12.8,179.8 36.9,171.1 "/>
<polygon class="st0" points="132.3,147.2 192.1,113 135.4,150.5 "/>
<circle class="st0" cx="205.4" cy="180.8" r="1.4"/>
<circle class="st0" cx="173.4" cy="172.8" r="1.4"/>
<circle class="st0" cx="189.8" cy="176.4" r="1.4"/>
<circle class="st0" cx="187.2" cy="198.4" r="1.4"/>
<circle class="st0" cx="170.6" cy="194.5" r="1.4"/>
<polygon class="st0" points="17.6,205.1 17.6,202.9 17.7,193.4 22.7,191.6 22.6,198.4 36.8,192.7 38.3,198.4 35,213.3 "/>
<polygon class="st0" points="48.2,177 53.1,175.2 63.3,176.4 64.7,182.7 53.4,188.2 "/>
<g>
	<path class="st0" d="M73.3,164.7l-1.4,0.8c0.8,3.4,2.8,6.8,5.7,10.5L73.3,164.7z"/>
</g>
<polygon class="st0" points="65.8,168.7 71.9,165.5 77.6,176 74.6,177.5 "/>
<g>
	<path class="st0" d="M82.4,180.8c3.3,4.1,9.8,8.1,14.8,10.3l-5.4-3.8C91.9,187.3,86,184.9,82.4,180.8z"/>
</g>
<polygon class="st0" points="65.8,177.5 71.7,177.8 73.3,179.4 66.7,181.4 "/>
<polygon class="st0" points="57.9,172.8 61.2,171.5 61.7,173.2 "/>
<polygon class="st0" points="45.4,178.4 50.2,188.4 39.4,193.4 38,190.7 24.4,195.9 24.4,190.4 24.4,186.9 "/>
<polygon class="st0" points="40.5,67 48.2,45.1 48.2,8 35.5,8 35.5,26.2 38.6,26.2 "/>
<g>
	<defs>
		<polygon id="SVGID_1_" points="50.9,74.7 55.4,72.7 67.6,72.7 70.9,89.9 60,94.5 51.9,80.5 		"/>
	</defs>
	<clipPath id="SVGID_2_">
		<use xlink:href="#SVGID_1_"  style="overflow:visible;"/>
	</clipPath>
	<g class="st2">
		<path class="st1" d="M59.8,60.2c22.9,46,22.6,63.8,18.9,92.7"/>
		<path class="st1" d="M76.7,152.9c3.7-29,4-46.7-18.9-92.7"/>
		<path class="st1" d="M55.7,60.2c22.9,46,22.6,63.8,18.9,92.7"/>
		<path class="st1" d="M53.7,60.2c22.9,46,22.6,63.8,18.9,92.7"/>
		<path class="st1" d="M51.6,60.2c22.9,46,22.6,63.8,18.9,92.7"/>
		<path class="st1" d="M49.6,60.2c22.9,46,22.6,63.8,18.9,92.7"/>
		<path class="st1" d="M47.5,60.2c22.9,46,22.6,63.8,18.9,92.7"/>
	</g>
</g>
<g>
	<defs>
		<polygon id="SVGID_3_" points="52,65.1 51,63.1 57.8,59.2 62,63.6 65.4,69 60,69.3 55.9,67.7 		"/>
	</defs>
	<clipPath id="SVGID_4_">
		<use xlink:href="#SVGID_3_"  style="overflow:visible;"/>
	</clipPath>
	<g class="st3">
		<path class="st1" d="M59.8,60.2c22.9,46,22.6,63.8,18.9,92.7"/>
		<path class="st1" d="M76.7,152.9c3.7-29,4-46.7-18.9-92.7"/>
		<path class="st1" d="M55.7,60.2c22.9,46,22.6,63.8,18.9,92.7"/>
		<path class="st1" d="M53.7,60.2c22.9,46,22.6,63.8,18.9,92.7"/>
		<path class="st1" d="M51.6,60.2c22.9,46,22.6,63.8,18.9,92.7"/>
		<path class="st1" d="M49.6,60.2c22.9,46,22.6,63.8,18.9,92.7"/>
		<path class="st1" d="M47.5,60.2c22.9,46,22.6,63.8,18.9,92.7"/>
	</g>
</g>
<polygon class="st0" points="57.9,102.1 48.2,105 47.7,100.1 55.4,97 "/>
<polygon class="st0" points="62.7,99.7 74.4,93.6 73,88.9 60,94.5 "/>
<path class="st0" d="M13.2,491l8.6-2l6.2-6.2l-3.5-5.9l-2.9-4c0,0-2-28.5-2.5-35.4C19.1,437.5,16.9,481.8,13.2,491z"/>
<path class="st0" d="M177.2,534h5.5c-21.1-18.5-43.4-42.8-58.3-74.3l-4.3-1.6C134.6,488.9,156.3,514.6,177.2,534z"/>
<g>
	<path class="st0" d="M121.2,534c-44.7-60.5-64.3-139-64.3-139C70.3,457.9,95,504.3,116,534L121.2,534z"/>
</g>
<path class="st0" d="M259,83.1c-0.2-0.1-57.6-2.8-109.9-51.2C138.8,22.3,129.4,11.5,121,0h-5.2c12,17.1,22.8,28.7,29.6,34.8
	c44.2,39.9,97.2,52.9,113.6,54.7V83.1z"/>
<path class="st0" d="M182.4,0h-5.5c9.7,9.1,19.2,16.7,27.7,22.9c29,21,54.2,31.6,54.4,31.7v-8.1c-0.2-0.1-31.2-11.4-52.2-26.8
	C199.2,14,190.9,7.5,182.4,0z"/>
<g>
	<path class="st0" d="M94.2,317.7c-9.1,0-18-0.4-26.7-1.2c-38.9-3.6-50.8-13.2-51.5-13.6c0,0,22.6,10.4,76.7,10.4
		c63.5,0,115-17.7,166.3-33.2l0,11.5C214,305.2,151.9,317.7,94.2,317.7z"/>
</g>
<polygon class="st0" points="120.1,458.1 117,450.9 119.4,449.5 124.4,459.7 127.6,466 "/>
<g>
	<g>
		<path class="st0" d="M16.7,116.5l-0.6-1.4c4.2-10.6,3.3-18.3-0.5-26C11.6,81,4.3,76.7,0,74.8l0-1.1c4.7,2.2,12.5,6.8,16.5,15
			C20.4,96.6,21,105.6,16.7,116.5z"/>
	</g>
	<g>
		<polygon class="st0" points="5.3,103.9 6.2,101.5 29.2,74 29.9,74.7 		"/>
	</g>
	<g>
		<path class="st0" d="M20.5,122.8l-0.4-1.1c8.7-4.8,9.6-7.1,9.3-8c-0.7-2.4-9.5-2.5-14.9-2.1l-0.7-1.2c1.5-0.1,15.4-0.9,16.6,3
			C31,115.7,27.8,118.8,20.5,122.8z"/>
	</g>
</g>
<g>
	<path class="st0" d="M117,290.7c12.3-10.2,15.5-24,15.8-26.1l-1,1c-0.3,3.1-3.6,15.4-15.3,24.5L117,290.7z"/>
	<path class="st0" d="M107,295.8c3-1.4,5.9-3.1,8.2-4.8l0.3,0.8c-2.4,1.8-5.2,3.5-8.3,4.9L107,295.8z"/>
	<path class="st0" d="M105.5,297.5c-5.3,2.2-11.7,3.7-19.2,4.2l2.4-1.4c6.4-0.6,11.8-1.9,16.5-3.8L105.5,297.5z"/>
</g>
<g>
	<path class="st0" d="M133.3,210.9c-2.5-1.5-9.5-1.1-7.8,0.9l-4.1,0c-2.7-3-8.7-7.7-12.1-9.8l-2.4-1.2l2.7,0.3
		c21.2,2.6,26,11.7,26.2,12.1L133.3,210.9z"/>
</g>
<g>
	<path class="st0" d="M146.2,273.2l-2.4,0.1c3.5-2.9,9.6-9.9,11.6-18.5l1.1,0.2C154.9,262.4,149.8,270.2,146.2,273.2z"/>
</g>
<g>
	<path class="st0" d="M141.7,280.1l-1.9,0.8c2.5-6.6,3.9-12.8,3.3-23.1l1.1-1.1C144.9,267.1,145.4,271.8,141.7,280.1z"/>
</g>
<path class="st0" d="M124.7,216.1l12.4,0.4c0,0,4,4.9,4,9.6l-8.8,0.7C132.3,226.8,129.6,219.7,124.7,216.1z"/>
<polygon class="st0" points="135.3,231.4 135.9,234.6 138.6,231.4 "/>
<g>
	<path class="st0" d="M85.4,68.6c-9,0-22.6-6.8-30.3-12.4c-1.4-1-3.1-1.4-5.3-2l-0.5-0.1l0.2-1l0.5,0.1c2.3,0.5,4.1,1,5.7,2.1
		C64.5,61.8,81.3,70,89.2,67c2-0.7,3.3-2.2,3.9-4.4c0.5-2,0.4-3.6-0.5-4.8c-2-3.1-7.8-4.2-13.9-5.4c-6.8-1.3-14.6-2.8-19.1-7.3
		c-3.4-3.4-2.5-8.9-1.6-14.3c0.8-4.7,1.5-9.2-0.7-11.8c-1.3-1.6-3.7-2.4-7.3-2.4v-1c3.9,0,6.5,0.9,8.1,2.7C60.6,21.3,59.8,26,59,31
		c-0.8,5.1-1.7,10.4,1.3,13.4c4.3,4.3,11.9,5.8,18.6,7c6.6,1.3,12.4,2.4,14.6,5.8c1,1.5,1.2,3.4,0.6,5.6c-0.6,2.5-2.1,4.2-4.5,5.1
		C88.4,68.4,87,68.6,85.4,68.6z"/>
</g>
<g>
	<path class="st0" d="M49.4,50.1l-0.6-0.8c16-11.4,17.9-18.3,16.7-22c-1.6-4.8-9.1-7-15.5-7v-1c7,0,14.8,2.4,16.5,7.7
		C68.4,32.8,62.7,40.6,49.4,50.1z"/>
</g>
<g>
	<path class="st0" d="M123.3,377.6c3.7,10.4,5.8,22.8,6.3,37l-1.3-6.2c-1.4-12.7-3.3-22.9-6.2-31.5L123.3,377.6z"/>
	<path class="st0" d="M118.9,369.3c-3.5-7.2-8.1-13.1-14.4-18.4c-11.3-9.5-30.2-11.8-30.2-11.8l-5.5-2.2c0.2,0,19.2-1.2,36.4,13.3
		c6.3,5.3,11.3,12,15.2,20.3L118.9,369.3z"/>
</g>
<path class="st0" d="M49.2,325.9c0,0,15,11,38.6,19.2"/>
<polygon class="st0" points="5.9,135.7 0,122.2 0,80.1 7.9,100.7 9.8,134.6 "/>
<polygon class="st0" points="30.6,20.7 29.3,40.4 23.7,25.7 25.7,22.5 "/>
<polygon class="st0" points="0,51.1 3,52.5 11,67 11,69.3 0,67 "/>
<polygon class="st0" points="21.4,355.9 11.7,321.7 7.9,301.2 6.6,287.8 9.8,301.2 16,324.1 "/>
<polygon class="st0" points="26.9,443.9 34.1,459 32.1,481.8 25.6,473.3 "/>
</svg>
