<?xml version="1.0" encoding="utf-8"?>
<!-- Generator: Adobe Illustrator 24.1.3, SVG Export Plug-In . SVG Version: 6.00 Build 0)  -->
<svg version="1.1" id="Capa_1" xmlns="http://www.w3.org/2000/svg" xmlns:xlink="http://www.w3.org/1999/xlink" x="0px" y="0px"
	 width="72.1px" height="40.5px" viewBox="0 0 72.1 40.5" style="enable-background:new 0 0 72.1 40.5;" xml:space="preserve">
<style type="text/css">
	.st0{fill:#FCC111;}
</style>
<g id="LETRAC">
	<path class="st0" d="M20.3,16h9.4c0.5,0,0.8-0.4,0.8-0.8V9.7c0-0.5-0.4-0.8-0.8-0.8h-9.4c-15.1,0.6-15.1,22.2,0,22.8h9.4
		c0.5,0,0.8-0.4,0.8-0.8v-5.6c0-0.5-0.4-0.8-0.8-0.8h-9.6C14.6,24.2,14.9,16.1,20.3,16z"/>
</g>
<path class="st0" d="M44.1,33.4H31.3h-11C2.8,32.7,2.8,7.8,20.3,7.1h11h16.9h7.3V0.9c0-0.4-0.2-0.7-0.6-0.8c-0.3-0.2-34.2,0-34.5,0
	C8.4,0-0.8,10.3,0.1,22.1c0,5.9,5.6,17.1,18.1,18.3c-1.3,0.3,25.9,0,25.9,0.1c4.7,0,8.7-2.9,10.4-7.1H44.1z"/>
</svg>
