<?xml version="1.0" encoding="utf-8"?>
<!-- Generator: Adobe Illustrator 24.1.3, SVG Export Plug-In . SVG Version: 6.00 Build 0)  -->
<svg version="1.1" id="Capa_1" xmlns="http://www.w3.org/2000/svg" xmlns:xlink="http://www.w3.org/1999/xlink" x="0px" y="0px"
	 width="177px" height="177px" viewBox="0 0 177 177" enable-background="new 0 0 177 177" xml:space="preserve">
<polygon fill="#FFFFFF" points="91.935,88.005 88.964,88.005 88.964,85.034 87.974,85.034 87.974,88.005 85.003,88.005 
	85.003,88.995 87.974,88.995 87.974,91.966 88.964,91.966 88.964,88.995 91.935,88.995 "/>
<polygon fill="#FFFFFF" points="0,0 0,3.961 0.99,3.961 0.99,0.99 3.961,0.99 3.961,0 "/>
<polygon fill="#FFFFFF" points="177,0 173.039,0 173.039,0.99 176.01,0.99 176.01,3.961 177,3.961 "/>
<polygon fill="#FFFFFF" points="177,177 173.039,177 173.039,176.01 176.01,176.01 176.01,173.039 177,173.039 "/>
<polygon fill="#FFFFFF" points="0,177 0,173.039 0.99,173.039 0.99,176.01 3.961,176.01 3.961,177 "/>
</svg>
